<svg xmlns="http://www.w3.org/2000/svg" xmlns:xlink="http://www.w3.org/1999/xlink" width="500" zoomAndPan="magnify" viewBox="0 0 375 374.999991" height="500" preserveAspectRatio="xMidYMid meet" version="1.0"><defs><g/></defs><rect x="-37.5" width="450" fill="#ffffff" y="-37.499999" height="449.999989" fill-opacity="1"/><rect x="-37.5" width="450" fill="#ffffff" y="-37.499999" height="449.999989" fill-opacity="1"/><path fill="#000000" d="M 215.625 93.75 L 159.375 93.75 C 158.757812 93.75 158.148438 93.808594 157.546875 93.929688 C 156.941406 94.050781 156.355469 94.226562 155.789062 94.464844 C 155.21875 94.699219 154.679688 94.988281 154.167969 95.328125 C 153.65625 95.671875 153.179688 96.0625 152.746094 96.496094 C 152.3125 96.929688 151.921875 97.40625 151.578125 97.917969 C 151.238281 98.429688 150.949219 98.96875 150.714844 99.539062 C 150.476562 100.105469 150.300781 100.691406 150.179688 101.296875 C 150.058594 101.898438 150 102.507812 150 103.125 C 150 103.742188 150.058594 104.351562 150.179688 104.953125 C 150.300781 105.558594 150.476562 106.144531 150.714844 106.710938 C 150.949219 107.28125 151.238281 107.820312 151.578125 108.332031 C 151.921875 108.84375 152.3125 109.320312 152.746094 109.753906 C 153.179688 110.1875 153.65625 110.578125 154.167969 110.921875 C 154.679688 111.261719 155.21875 111.550781 155.789062 111.785156 C 156.355469 112.023438 156.941406 112.199219 157.546875 112.320312 C 158.148438 112.441406 158.757812 112.5 159.375 112.5 L 215.625 112.5 C 216.242188 112.5 216.851562 112.441406 217.453125 112.320312 C 218.058594 112.199219 218.644531 112.023438 219.210938 111.785156 C 219.78125 111.550781 220.320312 111.261719 220.832031 110.921875 C 221.34375 110.578125 221.820312 110.1875 222.253906 109.753906 C 222.6875 109.320312 223.078125 108.84375 223.421875 108.332031 C 223.761719 107.820312 224.050781 107.28125 224.285156 106.710938 C 224.523438 106.144531 224.699219 105.558594 224.820312 104.953125 C 224.941406 104.351562 225 103.742188 225 103.125 C 225 102.507812 224.941406 101.898438 224.820312 101.296875 C 224.699219 100.691406 224.523438 100.105469 224.285156 99.539062 C 224.050781 98.96875 223.761719 98.429688 223.421875 97.917969 C 223.078125 97.40625 222.6875 96.929688 222.253906 96.496094 C 221.820312 96.0625 221.34375 95.671875 220.832031 95.328125 C 220.320312 94.988281 219.78125 94.699219 219.210938 94.464844 C 218.644531 94.226562 218.058594 94.050781 217.453125 93.929688 C 216.851562 93.808594 216.242188 93.75 215.625 93.75 Z M 215.625 93.75 " fill-opacity="1" fill-rule="nonzero"/><path fill="#000000" d="M 215.625 131.25 L 159.375 131.25 C 158.757812 131.25 158.148438 131.308594 157.546875 131.429688 C 156.941406 131.550781 156.355469 131.726562 155.789062 131.964844 C 155.21875 132.199219 154.679688 132.488281 154.167969 132.828125 C 153.65625 133.171875 153.179688 133.5625 152.746094 133.996094 C 152.3125 134.429688 151.921875 134.90625 151.578125 135.417969 C 151.238281 135.929688 150.949219 136.46875 150.714844 137.039062 C 150.476562 137.605469 150.300781 138.191406 150.179688 138.796875 C 150.058594 139.398438 150 140.007812 150 140.625 C 150 141.242188 150.058594 141.851562 150.179688 142.453125 C 150.300781 143.058594 150.476562 143.644531 150.714844 144.210938 C 150.949219 144.78125 151.238281 145.320312 151.578125 145.832031 C 151.921875 146.34375 152.3125 146.820312 152.746094 147.253906 C 153.179688 147.6875 153.65625 148.078125 154.167969 148.421875 C 154.679688 148.761719 155.21875 149.050781 155.789062 149.285156 C 156.355469 149.523438 156.941406 149.699219 157.546875 149.820312 C 158.148438 149.941406 158.757812 150 159.375 150 L 215.625 150 C 216.242188 150 216.851562 149.941406 217.453125 149.820312 C 218.058594 149.699219 218.644531 149.523438 219.210938 149.285156 C 219.78125 149.050781 220.320312 148.761719 220.832031 148.421875 C 221.34375 148.078125 221.820312 147.6875 222.253906 147.253906 C 222.6875 146.820312 223.078125 146.34375 223.421875 145.832031 C 223.761719 145.320312 224.050781 144.78125 224.285156 144.210938 C 224.523438 143.644531 224.699219 143.058594 224.820312 142.453125 C 224.941406 141.851562 225 141.242188 225 140.625 C 225 140.007812 224.941406 139.398438 224.820312 138.796875 C 224.699219 138.191406 224.523438 137.605469 224.285156 137.039062 C 224.050781 136.46875 223.761719 135.929688 223.421875 135.417969 C 223.078125 134.90625 222.6875 134.429688 222.253906 133.996094 C 221.820312 133.5625 221.34375 133.171875 220.832031 132.828125 C 220.320312 132.488281 219.78125 132.199219 219.210938 131.964844 C 218.644531 131.726562 218.058594 131.550781 217.453125 131.429688 C 216.851562 131.308594 216.242188 131.25 215.625 131.25 Z M 215.625 131.25 " fill-opacity="1" fill-rule="nonzero"/><path fill="#000000" d="M 365.625 18.75 C 365.007812 18.75 364.398438 18.808594 363.796875 18.929688 C 363.191406 19.050781 362.605469 19.226562 362.039062 19.464844 C 361.46875 19.699219 360.929688 19.988281 360.417969 20.328125 C 359.90625 20.671875 359.429688 21.0625 358.996094 21.496094 C 358.5625 21.929688 358.171875 22.40625 357.828125 22.917969 C 357.488281 23.429688 357.199219 23.96875 356.964844 24.539062 C 356.726562 25.105469 356.550781 25.691406 356.429688 26.296875 C 356.308594 26.898438 356.25 27.507812 356.25 28.125 L 356.25 56.25 L 318.75 56.25 L 318.75 28.125 C 318.75 27.507812 318.691406 26.898438 318.570312 26.296875 C 318.449219 25.691406 318.273438 25.105469 318.035156 24.539062 C 317.800781 23.96875 317.511719 23.429688 317.171875 22.917969 C 316.828125 22.40625 316.4375 21.929688 316.003906 21.496094 C 315.570312 21.0625 315.09375 20.671875 314.582031 20.328125 C 314.070312 19.988281 313.53125 19.699219 312.960938 19.464844 C 312.394531 19.226562 311.808594 19.050781 311.203125 18.929688 C 310.601562 18.808594 309.992188 18.75 309.375 18.75 C 308.757812 18.75 308.148438 18.808594 307.546875 18.929688 C 306.941406 19.050781 306.355469 19.226562 305.789062 19.464844 C 305.21875 19.699219 304.679688 19.988281 304.167969 20.328125 C 303.65625 20.671875 303.179688 21.0625 302.746094 21.496094 C 302.3125 21.929688 301.921875 22.40625 301.578125 22.917969 C 301.238281 23.429688 300.949219 23.96875 300.714844 24.539062 C 300.476562 25.105469 300.300781 25.691406 300.179688 26.296875 C 300.058594 26.898438 300 27.507812 300 28.125 L 300 65.625 C 300 66.242188 300.058594 66.851562 300.179688 67.453125 C 300.300781 68.058594 300.476562 68.644531 300.714844 69.210938 C 300.949219 69.78125 301.238281 70.320312 301.578125 70.832031 C 301.921875 71.34375 302.3125 71.820312 302.746094 72.253906 C 303.179688 72.6875 303.65625 73.078125 304.167969 73.421875 C 304.679688 73.761719 305.21875 74.050781 305.789062 74.285156 C 306.355469 74.523438 306.941406 74.699219 307.546875 74.820312 C 308.148438 74.941406 308.757812 75 309.375 75 L 328.125 75 L 328.125 112.5 L 262.5 112.5 L 262.5 65.625 C 262.5 65.007812 262.441406 64.398438 262.320312 63.796875 C 262.199219 63.191406 262.023438 62.605469 261.785156 62.039062 C 261.550781 61.46875 261.261719 60.929688 260.921875 60.417969 C 260.578125 59.90625 260.1875 59.429688 259.753906 58.996094 C 259.320312 58.5625 258.84375 58.171875 258.332031 57.828125 C 257.820312 57.488281 257.28125 57.199219 256.710938 56.964844 C 256.144531 56.726562 255.558594 56.550781 254.953125 56.429688 C 254.351562 56.308594 253.742188 56.25 253.125 56.25 L 225 56.25 L 225 28.125 C 225 27.203125 224.953125 26.285156 224.863281 25.367188 C 224.773438 24.453125 224.640625 23.542969 224.460938 22.636719 C 224.28125 21.734375 224.054688 20.84375 223.789062 19.960938 C 223.523438 19.078125 223.210938 18.214844 222.859375 17.363281 C 222.507812 16.511719 222.113281 15.679688 221.679688 14.867188 C 221.246094 14.054688 220.773438 13.265625 220.261719 12.5 C 219.75 11.734375 219.199219 10.996094 218.617188 10.28125 C 218.03125 9.570312 217.414062 8.890625 216.761719 8.238281 C 216.109375 7.585938 215.429688 6.96875 214.71875 6.382812 C 214.003906 5.800781 213.265625 5.25 212.5 4.738281 C 211.734375 4.226562 210.945312 3.753906 210.132812 3.320312 C 209.320312 2.886719 208.488281 2.492188 207.636719 2.140625 C 206.785156 1.789062 205.921875 1.476562 205.039062 1.210938 C 204.15625 0.945312 203.265625 0.71875 202.363281 0.539062 C 201.457031 0.359375 200.546875 0.226562 199.632812 0.136719 C 198.714844 0.046875 197.796875 0 196.875 0 L 178.125 0 C 177.203125 0 176.285156 0.046875 175.367188 0.136719 C 174.453125 0.226562 173.542969 0.359375 172.636719 0.539062 C 171.734375 0.71875 170.84375 0.945312 169.960938 1.210938 C 169.078125 1.476562 168.214844 1.789062 167.363281 2.140625 C 166.511719 2.492188 165.679688 2.886719 164.867188 3.320312 C 164.054688 3.753906 163.265625 4.226562 162.5 4.738281 C 161.734375 5.25 160.996094 5.800781 160.28125 6.382812 C 159.570312 6.96875 158.890625 7.585938 158.238281 8.238281 C 157.585938 8.890625 156.96875 9.570312 156.382812 10.28125 C 155.800781 10.996094 155.25 11.734375 154.738281 12.5 C 154.226562 13.265625 153.753906 14.054688 153.320312 14.867188 C 152.886719 15.679688 152.492188 16.511719 152.140625 17.363281 C 151.789062 18.214844 151.476562 19.078125 151.210938 19.960938 C 150.945312 20.84375 150.71875 21.734375 150.539062 22.636719 C 150.359375 23.542969 150.226562 24.453125 150.136719 25.367188 C 150.046875 26.285156 150 27.203125 150 28.125 L 150 56.25 L 121.875 56.25 C 121.257812 56.25 120.648438 56.308594 120.046875 56.429688 C 119.441406 56.550781 118.855469 56.726562 118.289062 56.964844 C 117.71875 57.199219 117.179688 57.488281 116.667969 57.828125 C 116.15625 58.171875 115.679688 58.5625 115.246094 58.996094 C 114.8125 59.429688 114.421875 59.90625 114.078125 60.417969 C 113.738281 60.929688 113.449219 61.46875 113.214844 62.039062 C 112.976562 62.605469 112.800781 63.191406 112.679688 63.796875 C 112.558594 64.398438 112.5 65.007812 112.5 65.625 L 112.5 112.5 L 46.875 112.5 L 46.875 75 L 65.625 75 C 66.242188 75 66.851562 74.941406 67.453125 74.820312 C 68.058594 74.699219 68.644531 74.523438 69.210938 74.285156 C 69.78125 74.050781 70.320312 73.761719 70.832031 73.421875 C 71.34375 73.078125 71.820312 72.6875 72.253906 72.253906 C 72.6875 71.820312 73.078125 71.34375 73.421875 70.832031 C 73.761719 70.320312 74.050781 69.78125 74.285156 69.210938 C 74.523438 68.644531 74.699219 68.058594 74.820312 67.453125 C 74.941406 66.851562 75 66.242188 75 65.625 L 75 28.125 C 75 27.507812 74.941406 26.898438 74.820312 26.296875 C 74.699219 25.691406 74.523438 25.105469 74.285156 24.539062 C 74.050781 23.96875 73.761719 23.429688 73.421875 22.917969 C 73.078125 22.40625 72.6875 21.929688 72.253906 21.496094 C 71.820312 21.0625 71.34375 20.671875 70.832031 20.328125 C 70.320312 19.988281 69.78125 19.699219 69.210938 19.464844 C 68.644531 19.226562 68.058594 19.050781 67.453125 18.929688 C 66.851562 18.808594 66.242188 18.75 65.625 18.75 C 65.007812 18.75 64.398438 18.808594 63.796875 18.929688 C 63.191406 19.050781 62.605469 19.226562 62.039062 19.464844 C 61.46875 19.699219 60.929688 19.988281 60.417969 20.328125 C 59.90625 20.671875 59.429688 21.0625 58.996094 21.496094 C 58.5625 21.929688 58.171875 22.40625 57.828125 22.917969 C 57.488281 23.429688 57.199219 23.96875 56.964844 24.539062 C 56.726562 25.105469 56.550781 25.691406 56.429688 26.296875 C 56.308594 26.898438 56.25 27.507812 56.25 28.125 L 56.25 56.25 L 18.75 56.25 L 18.75 28.125 C 18.75 27.507812 18.691406 26.898438 18.570312 26.296875 C 18.449219 25.691406 18.273438 25.105469 18.035156 24.539062 C 17.800781 23.96875 17.511719 23.429688 17.171875 22.917969 C 16.828125 22.40625 16.4375 21.929688 16.003906 21.496094 C 15.570312 21.0625 15.09375 20.671875 14.582031 20.328125 C 14.070312 19.988281 13.53125 19.699219 12.960938 19.464844 C 12.394531 19.226562 11.808594 19.050781 11.203125 18.929688 C 10.601562 18.808594 9.992188 18.75 9.375 18.75 C 8.757812 18.75 8.148438 18.808594 7.546875 18.929688 C 6.941406 19.050781 6.355469 19.226562 5.789062 19.464844 C 5.21875 19.699219 4.679688 19.988281 4.167969 20.328125 C 3.65625 20.671875 3.179688 21.0625 2.746094 21.496094 C 2.3125 21.929688 1.921875 22.40625 1.578125 22.917969 C 1.238281 23.429688 0.949219 23.96875 0.714844 24.539062 C 0.476562 25.105469 0.300781 25.691406 0.179688 26.296875 C 0.0585938 26.898438 0 27.507812 0 28.125 L 0 65.625 C 0 66.242188 0.0585938 66.851562 0.179688 67.453125 C 0.300781 68.058594 0.476562 68.644531 0.714844 69.210938 C 0.949219 69.78125 1.238281 70.320312 1.578125 70.832031 C 1.921875 71.34375 2.3125 71.820312 2.746094 72.253906 C 3.179688 72.6875 3.65625 73.078125 4.167969 73.421875 C 4.679688 73.761719 5.21875 74.050781 5.789062 74.285156 C 6.355469 74.523438 6.941406 74.699219 7.546875 74.820312 C 8.148438 74.941406 8.757812 75 9.375 75 L 28.125 75 L 28.125 121.875 C 28.125 122.492188 28.183594 123.101562 28.304688 123.703125 C 28.425781 124.308594 28.601562 124.894531 28.839844 125.460938 C 29.074219 126.03125 29.363281 126.570312 29.703125 127.082031 C 30.046875 127.59375 30.4375 128.070312 30.871094 128.503906 C 31.304688 128.9375 31.78125 129.328125 32.292969 129.671875 C 32.804688 130.011719 33.34375 130.300781 33.914062 130.535156 C 34.480469 130.773438 35.066406 130.949219 35.671875 131.070312 C 36.273438 131.191406 36.882812 131.25 37.5 131.25 L 112.5 131.25 L 112.5 178.125 C 112.5 178.742188 112.558594 179.351562 112.679688 179.953125 C 112.800781 180.558594 112.976562 181.144531 113.214844 181.710938 C 113.449219 182.28125 113.738281 182.820312 114.078125 183.332031 C 114.421875 183.84375 114.8125 184.320312 115.246094 184.753906 C 115.679688 185.1875 116.15625 185.578125 116.667969 185.921875 C 117.179688 186.261719 117.71875 186.550781 118.289062 186.785156 C 118.855469 187.023438 119.441406 187.199219 120.046875 187.320312 C 120.648438 187.441406 121.257812 187.5 121.875 187.5 L 150 187.5 L 150 214.859375 L 112.5 214.859375 C 111.882812 214.859375 111.273438 214.917969 110.671875 215.039062 C 110.066406 215.15625 109.480469 215.335938 108.914062 215.570312 C 108.34375 215.808594 107.804688 216.097656 107.292969 216.4375 C 106.78125 216.78125 106.304688 217.167969 105.871094 217.605469 C 105.4375 218.039062 105.046875 218.511719 104.703125 219.023438 C 104.363281 219.535156 104.074219 220.078125 103.839844 220.644531 C 103.601562 221.214844 103.425781 221.800781 103.304688 222.402344 C 103.183594 223.007812 103.125 223.617188 103.125 224.234375 L 103.125 281.25 L 93.75 281.25 C 93.183594 281.25 92.625 281.300781 92.070312 281.402344 C 91.511719 281.503906 90.972656 281.65625 90.441406 281.855469 C 89.914062 282.054688 89.410156 282.300781 88.925781 282.59375 C 88.441406 282.882812 87.988281 283.214844 87.5625 283.589844 C 87.140625 283.964844 86.75 284.371094 86.402344 284.816406 C 86.050781 285.257812 85.742188 285.730469 85.480469 286.226562 C 85.214844 286.726562 84.996094 287.246094 84.824219 287.785156 C 84.652344 288.320312 84.53125 288.871094 84.460938 289.433594 L 75.085938 364.433594 C 74.914062 365.777344 75.03125 367.09375 75.433594 368.386719 C 75.832031 369.683594 76.484375 370.835938 77.386719 371.847656 C 78.269531 372.851562 79.320312 373.628906 80.539062 374.179688 C 81.757812 374.726562 83.039062 375.003906 84.375 375 L 140.625 375 C 141.292969 375.007812 141.953125 374.941406 142.605469 374.804688 C 143.261719 374.667969 143.890625 374.464844 144.503906 374.191406 C 145.113281 373.921875 145.683594 373.585938 146.222656 373.191406 C 146.761719 372.792969 147.25 372.34375 147.691406 371.84375 C 148.132812 371.34375 148.515625 370.800781 148.835938 370.214844 C 149.160156 369.632812 149.417969 369.019531 149.609375 368.378906 C 149.804688 367.742188 149.925781 367.089844 149.976562 366.421875 C 150.027344 365.757812 150.007812 365.09375 149.914062 364.433594 L 140.539062 289.433594 C 140.46875 288.871094 140.347656 288.320312 140.175781 287.785156 C 140.003906 287.246094 139.785156 286.726562 139.519531 286.226562 C 139.257812 285.730469 138.949219 285.257812 138.597656 284.816406 C 138.25 284.371094 137.859375 283.964844 137.4375 283.589844 C 137.011719 283.214844 136.558594 282.882812 136.074219 282.59375 C 135.589844 282.300781 135.085938 282.054688 134.558594 281.855469 C 134.027344 281.65625 133.488281 281.503906 132.929688 281.402344 C 132.375 281.300781 131.816406 281.25 131.25 281.25 L 121.875 281.25 L 121.875 233.609375 L 150 233.609375 L 150 253.125 C 150 253.742188 150.058594 254.351562 150.179688 254.953125 C 150.300781 255.558594 150.476562 256.144531 150.714844 256.710938 C 150.949219 257.28125 151.238281 257.820312 151.578125 258.332031 C 151.921875 258.84375 152.3125 259.320312 152.746094 259.753906 C 153.179688 260.1875 153.65625 260.578125 154.167969 260.921875 C 154.679688 261.261719 155.21875 261.550781 155.789062 261.785156 C 156.355469 262.023438 156.941406 262.199219 157.546875 262.320312 C 158.148438 262.441406 158.757812 262.5 159.375 262.5 L 215.625 262.5 C 216.242188 262.5 216.851562 262.441406 217.453125 262.320312 C 218.058594 262.199219 218.644531 262.023438 219.210938 261.785156 C 219.78125 261.550781 220.320312 261.261719 220.832031 260.921875 C 221.34375 260.578125 221.820312 260.1875 222.253906 259.753906 C 222.6875 259.320312 223.078125 258.84375 223.421875 258.332031 C 223.761719 257.820312 224.050781 257.28125 224.285156 256.710938 C 224.523438 256.144531 224.699219 255.558594 224.820312 254.953125 C 224.941406 254.351562 225 253.742188 225 253.125 L 225 233.609375 L 253.125 233.609375 L 253.125 281.25 L 243.75 281.25 C 243.183594 281.25 242.625 281.300781 242.070312 281.402344 C 241.511719 281.503906 240.972656 281.65625 240.441406 281.855469 C 239.914062 282.054688 239.410156 282.300781 238.925781 282.59375 C 238.441406 282.882812 237.988281 283.214844 237.5625 283.589844 C 237.140625 283.964844 236.75 284.371094 236.402344 284.816406 C 236.050781 285.257812 235.742188 285.730469 235.480469 286.226562 C 235.214844 286.726562 234.996094 287.246094 234.824219 287.785156 C 234.652344 288.320312 234.53125 288.871094 234.460938 289.433594 L 225.085938 364.433594 C 224.914062 365.777344 225.03125 367.09375 225.433594 368.386719 C 225.832031 369.683594 226.484375 370.835938 227.386719 371.847656 C 228.269531 372.851562 229.320312 373.628906 230.539062 374.179688 C 231.757812 374.726562 233.039062 375.003906 234.375 375 L 290.625 375 C 291.292969 375.007812 291.953125 374.941406 292.605469 374.804688 C 293.261719 374.667969 293.890625 374.464844 294.503906 374.191406 C 295.113281 373.921875 295.683594 373.585938 296.222656 373.191406 C 296.761719 372.792969 297.25 372.34375 297.691406 371.84375 C 298.132812 371.34375 298.515625 370.800781 298.835938 370.214844 C 299.160156 369.632812 299.417969 369.019531 299.609375 368.378906 C 299.804688 367.742188 299.925781 367.089844 299.976562 366.421875 C 300.027344 365.757812 300.007812 365.09375 299.914062 364.433594 L 290.539062 289.433594 C 290.46875 288.871094 290.347656 288.320312 290.175781 287.785156 C 290.003906 287.246094 289.785156 286.726562 289.519531 286.226562 C 289.257812 285.730469 288.949219 285.257812 288.597656 284.816406 C 288.25 284.371094 287.859375 283.964844 287.4375 283.589844 C 287.011719 283.214844 286.558594 282.882812 286.074219 282.59375 C 285.589844 282.300781 285.085938 282.054688 284.558594 281.855469 C 284.027344 281.65625 283.488281 281.503906 282.929688 281.402344 C 282.375 281.300781 281.816406 281.25 281.25 281.25 L 271.875 281.25 L 271.875 224.234375 C 271.875 223.617188 271.816406 223.007812 271.695312 222.402344 C 271.574219 221.800781 271.398438 221.214844 271.160156 220.644531 C 270.925781 220.078125 270.636719 219.535156 270.296875 219.023438 C 269.953125 218.511719 269.5625 218.039062 269.128906 217.605469 C 268.695312 217.167969 268.21875 216.78125 267.707031 216.4375 C 267.195312 216.097656 266.65625 215.808594 266.085938 215.570312 C 265.519531 215.335938 264.933594 215.15625 264.328125 215.039062 C 263.726562 214.917969 263.117188 214.859375 262.5 214.859375 L 225 214.859375 L 225 187.5 L 253.125 187.5 C 253.742188 187.5 254.351562 187.441406 254.953125 187.320312 C 255.558594 187.199219 256.144531 187.023438 256.710938 186.785156 C 257.28125 186.550781 257.820312 186.261719 258.332031 185.921875 C 258.84375 185.578125 259.320312 185.1875 259.753906 184.753906 C 260.1875 184.320312 260.578125 183.84375 260.921875 183.332031 C 261.261719 182.820312 261.550781 182.28125 261.785156 181.710938 C 262.023438 181.144531 262.199219 180.558594 262.320312 179.953125 C 262.441406 179.351562 262.5 178.742188 262.5 178.125 L 262.5 131.25 L 337.5 131.25 C 338.117188 131.25 338.726562 131.191406 339.328125 131.070312 C 339.933594 130.949219 340.519531 130.773438 341.085938 130.535156 C 341.65625 130.300781 342.195312 130.011719 342.707031 129.671875 C 343.21875 129.328125 343.695312 128.9375 344.128906 128.503906 C 344.5625 128.070312 344.953125 127.59375 345.296875 127.082031 C 345.636719 126.570312 345.925781 126.03125 346.160156 125.460938 C 346.398438 124.894531 346.574219 124.308594 346.695312 123.703125 C 346.816406 123.101562 346.875 122.492188 346.875 121.875 L 346.875 75 L 365.625 75 C 366.242188 75 366.851562 74.941406 367.453125 74.820312 C 368.058594 74.699219 368.644531 74.523438 369.210938 74.285156 C 369.78125 74.050781 370.320312 73.761719 370.832031 73.421875 C 371.34375 73.078125 371.820312 72.6875 372.253906 72.253906 C 372.6875 71.820312 373.078125 71.34375 373.421875 70.832031 C 373.761719 70.320312 374.050781 69.78125 374.285156 69.210938 C 374.523438 68.644531 374.699219 68.058594 374.820312 67.453125 C 374.941406 66.851562 375 66.242188 375 65.625 L 375 28.125 C 375 27.507812 374.941406 26.898438 374.820312 26.296875 C 374.699219 25.691406 374.523438 25.105469 374.285156 24.539062 C 374.050781 23.96875 373.761719 23.429688 373.421875 22.917969 C 373.078125 22.40625 372.6875 21.929688 372.253906 21.496094 C 371.820312 21.0625 371.34375 20.671875 370.832031 20.328125 C 370.320312 19.988281 369.78125 19.699219 369.210938 19.464844 C 368.644531 19.226562 368.058594 19.050781 367.453125 18.929688 C 366.851562 18.808594 366.242188 18.75 365.625 18.75 Z M 129.972656 356.25 L 95.027344 356.25 L 102.015625 300 L 122.984375 300 Z M 279.972656 356.25 L 245.027344 356.25 L 252.015625 300 L 272.984375 300 Z M 168.75 28.125 C 168.75 27.507812 168.808594 26.898438 168.929688 26.296875 C 169.050781 25.691406 169.226562 25.105469 169.464844 24.539062 C 169.699219 23.96875 169.988281 23.429688 170.328125 22.917969 C 170.671875 22.40625 171.0625 21.929688 171.496094 21.496094 C 171.929688 21.0625 172.40625 20.671875 172.917969 20.328125 C 173.429688 19.988281 173.96875 19.699219 174.539062 19.464844 C 175.105469 19.226562 175.691406 19.050781 176.296875 18.929688 C 176.898438 18.808594 177.507812 18.75 178.125 18.75 L 196.875 18.75 C 197.492188 18.75 198.101562 18.808594 198.703125 18.929688 C 199.308594 19.050781 199.894531 19.226562 200.460938 19.464844 C 201.03125 19.699219 201.570312 19.988281 202.082031 20.328125 C 202.59375 20.671875 203.070312 21.0625 203.503906 21.496094 C 203.9375 21.929688 204.328125 22.40625 204.671875 22.917969 C 205.011719 23.429688 205.300781 23.96875 205.535156 24.539062 C 205.773438 25.105469 205.949219 25.691406 206.070312 26.296875 C 206.191406 26.898438 206.25 27.507812 206.25 28.125 L 206.25 56.25 L 168.75 56.25 Z M 206.25 243.75 L 168.75 243.75 L 168.75 187.5 L 206.25 187.5 Z M 243.75 168.75 L 131.25 168.75 L 131.25 75 L 243.75 75 Z M 243.75 168.75 " fill-opacity="1" fill-rule="nonzero"/><g fill="#000000" fill-opacity="1"><g transform="translate(156.908197, 183.849994)"><g><path d="M 2.140625 -10.28125 C 1.867188 -10.28125 1.648438 -10.363281 1.484375 -10.53125 C 1.316406 -10.707031 1.234375 -10.925781 1.234375 -11.1875 C 1.234375 -11.445312 1.316406 -11.660156 1.484375 -11.828125 C 1.648438 -11.992188 1.867188 -12.078125 2.140625 -12.078125 C 2.410156 -12.078125 2.628906 -11.992188 2.796875 -11.828125 C 2.972656 -11.660156 3.0625 -11.445312 3.0625 -11.1875 C 3.0625 -10.925781 2.972656 -10.707031 2.796875 -10.53125 C 2.628906 -10.363281 2.410156 -10.28125 2.140625 -10.28125 Z M 0.421875 3.65625 C 0.148438 3.65625 -0.0859375 3.632812 -0.296875 3.59375 C -0.503906 3.5625 -0.707031 3.507812 -0.90625 3.4375 L -0.703125 2.453125 L -0.5625 2.40625 C -0.300781 2.5 -0.03125 2.546875 0.25 2.546875 C 0.65625 2.546875 0.960938 2.410156 1.171875 2.140625 C 1.390625 1.878906 1.5 1.5 1.5 1 L 1.5 -8.625 L 2.78125 -8.625 L 2.78125 0.953125 C 2.78125 1.816406 2.570312 2.484375 2.15625 2.953125 C 1.75 3.421875 1.171875 3.65625 0.421875 3.65625 Z M 0.421875 3.65625 "/></g></g></g><g fill="#000000" fill-opacity="1"><g transform="translate(161.180597, 183.849994)"><g><path d="M 8.21875 -4.015625 L 2.296875 -4.015625 C 2.328125 -2.972656 2.578125 -2.207031 3.046875 -1.71875 C 3.515625 -1.226562 4.15625 -0.984375 4.96875 -0.984375 C 5.582031 -0.984375 6.078125 -1.09375 6.453125 -1.3125 C 6.828125 -1.53125 7.117188 -1.875 7.328125 -2.34375 L 7.5 -2.34375 L 8.328125 -1.84375 C 8.078125 -1.21875 7.675781 -0.722656 7.125 -0.359375 C 6.570312 -0.00390625 5.851562 0.171875 4.96875 0.171875 C 4.132812 0.171875 3.414062 0.00390625 2.8125 -0.328125 C 2.21875 -0.660156 1.757812 -1.160156 1.4375 -1.828125 C 1.113281 -2.492188 0.953125 -3.320312 0.953125 -4.3125 C 0.953125 -5.289062 1.117188 -6.113281 1.453125 -6.78125 C 1.796875 -7.457031 2.265625 -7.957031 2.859375 -8.28125 C 3.453125 -8.613281 4.128906 -8.78125 4.890625 -8.78125 C 5.992188 -8.78125 6.851562 -8.46875 7.46875 -7.84375 C 8.09375 -7.226562 8.40625 -6.304688 8.40625 -5.078125 C 8.40625 -4.597656 8.394531 -4.273438 8.375 -4.109375 Z M 7.15625 -5.078125 C 7.132812 -5.992188 6.929688 -6.660156 6.546875 -7.078125 C 6.160156 -7.492188 5.609375 -7.703125 4.890625 -7.703125 C 4.128906 -7.703125 3.535156 -7.492188 3.109375 -7.078125 C 2.679688 -6.660156 2.421875 -5.992188 2.328125 -5.078125 Z M 7.15625 -5.078125 "/></g></g></g><g fill="#000000" fill-opacity="1"><g transform="translate(170.365853, 183.849994)"><g><path d="M 1.921875 0 L 1.921875 -7.578125 L 0.421875 -7.578125 L 0.421875 -8.625 L 1.921875 -8.625 C 1.828125 -9 1.78125 -9.359375 1.78125 -9.703125 C 1.78125 -10.253906 1.898438 -10.722656 2.140625 -11.109375 C 2.378906 -11.492188 2.707031 -11.78125 3.125 -11.96875 C 3.550781 -12.15625 4.039062 -12.25 4.59375 -12.25 C 5.445312 -12.25 6.101562 -12.0625 6.5625 -11.6875 L 6.078125 -10.796875 L 5.90625 -10.765625 C 5.570312 -11.035156 5.132812 -11.171875 4.59375 -11.171875 C 4.082031 -11.171875 3.695312 -11.039062 3.4375 -10.78125 C 3.1875 -10.519531 3.0625 -10.148438 3.0625 -9.671875 C 3.0625 -9.367188 3.109375 -9.019531 3.203125 -8.625 L 5.9375 -8.625 L 5.9375 -7.578125 L 3.203125 -7.578125 L 3.203125 0 Z M 1.921875 0 "/></g></g></g><g fill="#000000" fill-opacity="1"><g transform="translate(176.504979, 183.849994)"><g><path d="M 8.21875 -4.015625 L 2.296875 -4.015625 C 2.328125 -2.972656 2.578125 -2.207031 3.046875 -1.71875 C 3.515625 -1.226562 4.15625 -0.984375 4.96875 -0.984375 C 5.582031 -0.984375 6.078125 -1.09375 6.453125 -1.3125 C 6.828125 -1.53125 7.117188 -1.875 7.328125 -2.34375 L 7.5 -2.34375 L 8.328125 -1.84375 C 8.078125 -1.21875 7.675781 -0.722656 7.125 -0.359375 C 6.570312 -0.00390625 5.851562 0.171875 4.96875 0.171875 C 4.132812 0.171875 3.414062 0.00390625 2.8125 -0.328125 C 2.21875 -0.660156 1.757812 -1.160156 1.4375 -1.828125 C 1.113281 -2.492188 0.953125 -3.320312 0.953125 -4.3125 C 0.953125 -5.289062 1.117188 -6.113281 1.453125 -6.78125 C 1.796875 -7.457031 2.265625 -7.957031 2.859375 -8.28125 C 3.453125 -8.613281 4.128906 -8.78125 4.890625 -8.78125 C 5.992188 -8.78125 6.851562 -8.46875 7.46875 -7.84375 C 8.09375 -7.226562 8.40625 -6.304688 8.40625 -5.078125 C 8.40625 -4.597656 8.394531 -4.273438 8.375 -4.109375 Z M 7.15625 -5.078125 C 7.132812 -5.992188 6.929688 -6.660156 6.546875 -7.078125 C 6.160156 -7.492188 5.609375 -7.703125 4.890625 -7.703125 C 4.128906 -7.703125 3.535156 -7.492188 3.109375 -7.078125 C 2.679688 -6.660156 2.421875 -5.992188 2.328125 -5.078125 Z M 7.15625 -5.078125 "/></g></g></g><g fill="#000000" fill-opacity="1"><g transform="translate(185.690235, 183.849994)"><g><path d="M 1.921875 0 L 1.921875 -7.578125 L 0.421875 -7.578125 L 0.421875 -8.625 L 1.921875 -8.625 C 1.828125 -9 1.78125 -9.359375 1.78125 -9.703125 C 1.78125 -10.253906 1.898438 -10.722656 2.140625 -11.109375 C 2.378906 -11.492188 2.707031 -11.78125 3.125 -11.96875 C 3.550781 -12.15625 4.039062 -12.25 4.59375 -12.25 C 5.445312 -12.25 6.101562 -12.0625 6.5625 -11.6875 L 6.078125 -10.796875 L 5.90625 -10.765625 C 5.570312 -11.035156 5.132812 -11.171875 4.59375 -11.171875 C 4.082031 -11.171875 3.695312 -11.039062 3.4375 -10.78125 C 3.1875 -10.519531 3.0625 -10.148438 3.0625 -9.671875 C 3.0625 -9.367188 3.109375 -9.019531 3.203125 -8.625 L 5.9375 -8.625 L 5.9375 -7.578125 L 3.203125 -7.578125 L 3.203125 0 Z M 1.921875 0 "/></g></g></g><g fill="#000000" fill-opacity="1"><g transform="translate(191.829361, 183.849994)"><g><path d="M 1.921875 0 L 1.921875 -7.578125 L 0.421875 -7.578125 L 0.421875 -8.625 L 1.921875 -8.625 C 1.828125 -9 1.78125 -9.359375 1.78125 -9.703125 C 1.78125 -10.253906 1.898438 -10.722656 2.140625 -11.109375 C 2.378906 -11.492188 2.707031 -11.78125 3.125 -11.96875 C 3.550781 -12.15625 4.039062 -12.25 4.59375 -12.25 C 5.445312 -12.25 6.101562 -12.0625 6.5625 -11.6875 L 6.078125 -10.796875 L 5.90625 -10.765625 C 5.570312 -11.035156 5.132812 -11.171875 4.59375 -11.171875 C 4.082031 -11.171875 3.695312 -11.039062 3.4375 -10.78125 C 3.1875 -10.519531 3.0625 -10.148438 3.0625 -9.671875 C 3.0625 -9.367188 3.109375 -9.019531 3.203125 -8.625 L 5.9375 -8.625 L 5.9375 -7.578125 L 3.203125 -7.578125 L 3.203125 0 Z M 1.921875 0 "/></g></g></g><g fill="#000000" fill-opacity="1"><g transform="translate(197.968486, 183.849994)"><g><path d="M 1.5 0 L 1.5 -8.625 L 2.71875 -8.625 L 2.71875 -7.265625 L 2.875 -7.234375 C 3.28125 -8.210938 4.035156 -8.703125 5.140625 -8.703125 C 5.734375 -8.703125 6.175781 -8.59375 6.46875 -8.375 L 6.140625 -7.296875 L 5.984375 -7.265625 C 5.660156 -7.429688 5.304688 -7.515625 4.921875 -7.515625 C 4.234375 -7.515625 3.703125 -7.253906 3.328125 -6.734375 C 2.960938 -6.222656 2.78125 -5.390625 2.78125 -4.234375 L 2.78125 0 Z M 1.5 0 "/></g></g></g><g fill="#000000" fill-opacity="1"><g transform="translate(204.623111, 183.849994)"><g><path d="M 8.21875 -4.015625 L 2.296875 -4.015625 C 2.328125 -2.972656 2.578125 -2.207031 3.046875 -1.71875 C 3.515625 -1.226562 4.15625 -0.984375 4.96875 -0.984375 C 5.582031 -0.984375 6.078125 -1.09375 6.453125 -1.3125 C 6.828125 -1.53125 7.117188 -1.875 7.328125 -2.34375 L 7.5 -2.34375 L 8.328125 -1.84375 C 8.078125 -1.21875 7.675781 -0.722656 7.125 -0.359375 C 6.570312 -0.00390625 5.851562 0.171875 4.96875 0.171875 C 4.132812 0.171875 3.414062 0.00390625 2.8125 -0.328125 C 2.21875 -0.660156 1.757812 -1.160156 1.4375 -1.828125 C 1.113281 -2.492188 0.953125 -3.320312 0.953125 -4.3125 C 0.953125 -5.289062 1.117188 -6.113281 1.453125 -6.78125 C 1.796875 -7.457031 2.265625 -7.957031 2.859375 -8.28125 C 3.453125 -8.613281 4.128906 -8.78125 4.890625 -8.78125 C 5.992188 -8.78125 6.851562 -8.46875 7.46875 -7.84375 C 8.09375 -7.226562 8.40625 -6.304688 8.40625 -5.078125 C 8.40625 -4.597656 8.394531 -4.273438 8.375 -4.109375 Z M 7.15625 -5.078125 C 7.132812 -5.992188 6.929688 -6.660156 6.546875 -7.078125 C 6.160156 -7.492188 5.609375 -7.703125 4.890625 -7.703125 C 4.128906 -7.703125 3.535156 -7.492188 3.109375 -7.078125 C 2.679688 -6.660156 2.421875 -5.992188 2.328125 -5.078125 Z M 7.15625 -5.078125 "/></g></g></g><g fill="#000000" fill-opacity="1"><g transform="translate(213.808367, 183.849994)"><g><path d="M 2.140625 -10.28125 C 1.867188 -10.28125 1.648438 -10.363281 1.484375 -10.53125 C 1.316406 -10.707031 1.234375 -10.925781 1.234375 -11.1875 C 1.234375 -11.445312 1.316406 -11.660156 1.484375 -11.828125 C 1.648438 -11.992188 1.867188 -12.078125 2.140625 -12.078125 C 2.410156 -12.078125 2.628906 -11.992188 2.796875 -11.828125 C 2.972656 -11.660156 3.0625 -11.445312 3.0625 -11.1875 C 3.0625 -10.925781 2.972656 -10.707031 2.796875 -10.53125 C 2.628906 -10.363281 2.410156 -10.28125 2.140625 -10.28125 Z M 0.421875 3.65625 C 0.148438 3.65625 -0.0859375 3.632812 -0.296875 3.59375 C -0.503906 3.5625 -0.707031 3.507812 -0.90625 3.4375 L -0.703125 2.453125 L -0.5625 2.40625 C -0.300781 2.5 -0.03125 2.546875 0.25 2.546875 C 0.65625 2.546875 0.960938 2.410156 1.171875 2.140625 C 1.390625 1.878906 1.5 1.5 1.5 1 L 1.5 -8.625 L 2.78125 -8.625 L 2.78125 0.953125 C 2.78125 1.816406 2.570312 2.484375 2.15625 2.953125 C 1.75 3.421875 1.171875 3.65625 0.421875 3.65625 Z M 0.421875 3.65625 "/></g></g></g><g fill="#000000" fill-opacity="1"><g transform="translate(161.188499, 70.598079)"><g><path d="M 1.84375 -8.84375 C 1.601562 -8.84375 1.410156 -8.914062 1.265625 -9.0625 C 1.128906 -9.207031 1.0625 -9.394531 1.0625 -9.625 C 1.0625 -9.84375 1.128906 -10.023438 1.265625 -10.171875 C 1.410156 -10.316406 1.601562 -10.390625 1.84375 -10.390625 C 2.070312 -10.390625 2.257812 -10.316406 2.40625 -10.171875 C 2.550781 -10.023438 2.625 -9.84375 2.625 -9.625 C 2.625 -9.394531 2.550781 -9.207031 2.40625 -9.0625 C 2.257812 -8.914062 2.070312 -8.84375 1.84375 -8.84375 Z M 0.359375 3.140625 C 0.128906 3.140625 -0.0703125 3.125 -0.25 3.09375 C -0.4375 3.0625 -0.609375 3.015625 -0.765625 2.953125 L -0.609375 2.109375 L -0.484375 2.0625 C -0.253906 2.144531 -0.0234375 2.1875 0.203125 2.1875 C 0.554688 2.1875 0.828125 2.070312 1.015625 1.84375 C 1.203125 1.613281 1.296875 1.285156 1.296875 0.859375 L 1.296875 -7.40625 L 2.390625 -7.40625 L 2.390625 0.8125 C 2.390625 1.550781 2.210938 2.125 1.859375 2.53125 C 1.503906 2.9375 1.003906 3.140625 0.359375 3.140625 Z M 0.359375 3.140625 "/></g></g></g><g fill="#000000" fill-opacity="1"><g transform="translate(164.863119, 70.598079)"><g><path d="M 7.0625 -3.453125 L 1.96875 -3.453125 C 2 -2.554688 2.210938 -1.894531 2.609375 -1.46875 C 3.015625 -1.050781 3.566406 -0.84375 4.265625 -0.84375 C 4.796875 -0.84375 5.222656 -0.9375 5.546875 -1.125 C 5.867188 -1.3125 6.125 -1.609375 6.3125 -2.015625 L 6.453125 -2.015625 L 7.15625 -1.59375 C 6.9375 -1.050781 6.59375 -0.625 6.125 -0.3125 C 5.65625 -0.0078125 5.035156 0.140625 4.265625 0.140625 C 3.546875 0.140625 2.925781 0 2.40625 -0.28125 C 1.894531 -0.5625 1.5 -0.988281 1.21875 -1.5625 C 0.945312 -2.132812 0.8125 -2.847656 0.8125 -3.703125 C 0.8125 -4.546875 0.957031 -5.253906 1.25 -5.828125 C 1.539062 -6.410156 1.941406 -6.84375 2.453125 -7.125 C 2.960938 -7.414062 3.546875 -7.5625 4.203125 -7.5625 C 5.148438 -7.5625 5.890625 -7.289062 6.421875 -6.75 C 6.953125 -6.21875 7.222656 -5.425781 7.234375 -4.375 C 7.234375 -3.957031 7.222656 -3.675781 7.203125 -3.53125 Z M 6.15625 -4.375 C 6.132812 -5.15625 5.957031 -5.722656 5.625 -6.078125 C 5.289062 -6.441406 4.816406 -6.625 4.203125 -6.625 C 3.546875 -6.625 3.035156 -6.441406 2.671875 -6.078125 C 2.304688 -5.722656 2.082031 -5.15625 2 -4.375 Z M 6.15625 -4.375 "/></g></g></g><g fill="#000000" fill-opacity="1"><g transform="translate(172.763205, 70.598079)"><g><path d="M 1.65625 0 L 1.65625 -6.515625 L 0.359375 -6.515625 L 0.359375 -7.421875 L 1.65625 -7.421875 C 1.570312 -7.742188 1.53125 -8.050781 1.53125 -8.34375 C 1.53125 -8.820312 1.628906 -9.222656 1.828125 -9.546875 C 2.035156 -9.878906 2.320312 -10.125 2.6875 -10.28125 C 3.050781 -10.445312 3.472656 -10.53125 3.953125 -10.53125 C 4.679688 -10.53125 5.242188 -10.375 5.640625 -10.0625 L 5.21875 -9.28125 L 5.078125 -9.25 C 4.785156 -9.488281 4.410156 -9.609375 3.953125 -9.609375 C 3.515625 -9.609375 3.179688 -9.492188 2.953125 -9.265625 C 2.734375 -9.046875 2.625 -8.726562 2.625 -8.3125 C 2.625 -8.0625 2.664062 -7.765625 2.75 -7.421875 L 5.109375 -7.421875 L 5.109375 -6.515625 L 2.75 -6.515625 L 2.75 0 Z M 1.65625 0 "/></g></g></g><g fill="#000000" fill-opacity="1"><g transform="translate(178.043365, 70.598079)"><g><path d="M 7.0625 -3.453125 L 1.96875 -3.453125 C 2 -2.554688 2.210938 -1.894531 2.609375 -1.46875 C 3.015625 -1.050781 3.566406 -0.84375 4.265625 -0.84375 C 4.796875 -0.84375 5.222656 -0.9375 5.546875 -1.125 C 5.867188 -1.3125 6.125 -1.609375 6.3125 -2.015625 L 6.453125 -2.015625 L 7.15625 -1.59375 C 6.9375 -1.050781 6.59375 -0.625 6.125 -0.3125 C 5.65625 -0.0078125 5.035156 0.140625 4.265625 0.140625 C 3.546875 0.140625 2.925781 0 2.40625 -0.28125 C 1.894531 -0.5625 1.5 -0.988281 1.21875 -1.5625 C 0.945312 -2.132812 0.8125 -2.847656 0.8125 -3.703125 C 0.8125 -4.546875 0.957031 -5.253906 1.25 -5.828125 C 1.539062 -6.410156 1.941406 -6.84375 2.453125 -7.125 C 2.960938 -7.414062 3.546875 -7.5625 4.203125 -7.5625 C 5.148438 -7.5625 5.890625 -7.289062 6.421875 -6.75 C 6.953125 -6.21875 7.222656 -5.425781 7.234375 -4.375 C 7.234375 -3.957031 7.222656 -3.675781 7.203125 -3.53125 Z M 6.15625 -4.375 C 6.132812 -5.15625 5.957031 -5.722656 5.625 -6.078125 C 5.289062 -6.441406 4.816406 -6.625 4.203125 -6.625 C 3.546875 -6.625 3.035156 -6.441406 2.671875 -6.078125 C 2.304688 -5.722656 2.082031 -5.15625 2 -4.375 Z M 6.15625 -4.375 "/></g></g></g><g fill="#000000" fill-opacity="1"><g transform="translate(185.943451, 70.598079)"><g><path d="M 1.65625 0 L 1.65625 -6.515625 L 0.359375 -6.515625 L 0.359375 -7.421875 L 1.65625 -7.421875 C 1.570312 -7.742188 1.53125 -8.050781 1.53125 -8.34375 C 1.53125 -8.820312 1.628906 -9.222656 1.828125 -9.546875 C 2.035156 -9.878906 2.320312 -10.125 2.6875 -10.28125 C 3.050781 -10.445312 3.472656 -10.53125 3.953125 -10.53125 C 4.679688 -10.53125 5.242188 -10.375 5.640625 -10.0625 L 5.21875 -9.28125 L 5.078125 -9.25 C 4.785156 -9.488281 4.410156 -9.609375 3.953125 -9.609375 C 3.515625 -9.609375 3.179688 -9.492188 2.953125 -9.265625 C 2.734375 -9.046875 2.625 -8.726562 2.625 -8.3125 C 2.625 -8.0625 2.664062 -7.765625 2.75 -7.421875 L 5.109375 -7.421875 L 5.109375 -6.515625 L 2.75 -6.515625 L 2.75 0 Z M 1.65625 0 "/></g></g></g><g fill="#000000" fill-opacity="1"><g transform="translate(191.223611, 70.598079)"><g><path d="M 1.65625 0 L 1.65625 -6.515625 L 0.359375 -6.515625 L 0.359375 -7.421875 L 1.65625 -7.421875 C 1.570312 -7.742188 1.53125 -8.050781 1.53125 -8.34375 C 1.53125 -8.820312 1.628906 -9.222656 1.828125 -9.546875 C 2.035156 -9.878906 2.320312 -10.125 2.6875 -10.28125 C 3.050781 -10.445312 3.472656 -10.53125 3.953125 -10.53125 C 4.679688 -10.53125 5.242188 -10.375 5.640625 -10.0625 L 5.21875 -9.28125 L 5.078125 -9.25 C 4.785156 -9.488281 4.410156 -9.609375 3.953125 -9.609375 C 3.515625 -9.609375 3.179688 -9.492188 2.953125 -9.265625 C 2.734375 -9.046875 2.625 -8.726562 2.625 -8.3125 C 2.625 -8.0625 2.664062 -7.765625 2.75 -7.421875 L 5.109375 -7.421875 L 5.109375 -6.515625 L 2.75 -6.515625 L 2.75 0 Z M 1.65625 0 "/></g></g></g><g fill="#000000" fill-opacity="1"><g transform="translate(196.503771, 70.598079)"><g><path d="M 1.296875 0 L 1.296875 -7.40625 L 2.328125 -7.40625 L 2.328125 -6.25 L 2.46875 -6.21875 C 2.8125 -7.0625 3.460938 -7.484375 4.421875 -7.484375 C 4.929688 -7.484375 5.3125 -7.390625 5.5625 -7.203125 L 5.28125 -6.28125 L 5.140625 -6.25 C 4.859375 -6.382812 4.554688 -6.453125 4.234375 -6.453125 C 3.640625 -6.453125 3.179688 -6.226562 2.859375 -5.78125 C 2.546875 -5.34375 2.390625 -4.628906 2.390625 -3.640625 L 2.390625 0 Z M 1.296875 0 "/></g></g></g><g fill="#000000" fill-opacity="1"><g transform="translate(202.227303, 70.598079)"><g><path d="M 7.0625 -3.453125 L 1.96875 -3.453125 C 2 -2.554688 2.210938 -1.894531 2.609375 -1.46875 C 3.015625 -1.050781 3.566406 -0.84375 4.265625 -0.84375 C 4.796875 -0.84375 5.222656 -0.9375 5.546875 -1.125 C 5.867188 -1.3125 6.125 -1.609375 6.3125 -2.015625 L 6.453125 -2.015625 L 7.15625 -1.59375 C 6.9375 -1.050781 6.59375 -0.625 6.125 -0.3125 C 5.65625 -0.0078125 5.035156 0.140625 4.265625 0.140625 C 3.546875 0.140625 2.925781 0 2.40625 -0.28125 C 1.894531 -0.5625 1.5 -0.988281 1.21875 -1.5625 C 0.945312 -2.132812 0.8125 -2.847656 0.8125 -3.703125 C 0.8125 -4.546875 0.957031 -5.253906 1.25 -5.828125 C 1.539062 -6.410156 1.941406 -6.84375 2.453125 -7.125 C 2.960938 -7.414062 3.546875 -7.5625 4.203125 -7.5625 C 5.148438 -7.5625 5.890625 -7.289062 6.421875 -6.75 C 6.953125 -6.21875 7.222656 -5.425781 7.234375 -4.375 C 7.234375 -3.957031 7.222656 -3.675781 7.203125 -3.53125 Z M 6.15625 -4.375 C 6.132812 -5.15625 5.957031 -5.722656 5.625 -6.078125 C 5.289062 -6.441406 4.816406 -6.625 4.203125 -6.625 C 3.546875 -6.625 3.035156 -6.441406 2.671875 -6.078125 C 2.304688 -5.722656 2.082031 -5.15625 2 -4.375 Z M 6.15625 -4.375 "/></g></g></g><g fill="#000000" fill-opacity="1"><g transform="translate(210.12739, 70.598079)"><g><path d="M 1.84375 -8.84375 C 1.601562 -8.84375 1.410156 -8.914062 1.265625 -9.0625 C 1.128906 -9.207031 1.0625 -9.394531 1.0625 -9.625 C 1.0625 -9.84375 1.128906 -10.023438 1.265625 -10.171875 C 1.410156 -10.316406 1.601562 -10.390625 1.84375 -10.390625 C 2.070312 -10.390625 2.257812 -10.316406 2.40625 -10.171875 C 2.550781 -10.023438 2.625 -9.84375 2.625 -9.625 C 2.625 -9.394531 2.550781 -9.207031 2.40625 -9.0625 C 2.257812 -8.914062 2.070312 -8.84375 1.84375 -8.84375 Z M 0.359375 3.140625 C 0.128906 3.140625 -0.0703125 3.125 -0.25 3.09375 C -0.4375 3.0625 -0.609375 3.015625 -0.765625 2.953125 L -0.609375 2.109375 L -0.484375 2.0625 C -0.253906 2.144531 -0.0234375 2.1875 0.203125 2.1875 C 0.554688 2.1875 0.828125 2.070312 1.015625 1.84375 C 1.203125 1.613281 1.296875 1.285156 1.296875 0.859375 L 1.296875 -7.40625 L 2.390625 -7.40625 L 2.390625 0.8125 C 2.390625 1.550781 2.210938 2.125 1.859375 2.53125 C 1.503906 2.9375 1.003906 3.140625 0.359375 3.140625 Z M 0.359375 3.140625 "/></g></g></g><g fill="#000000" fill-opacity="1"><g transform="translate(266.685309, 127.021537)"><g><path d="M 2.140625 -10.28125 C 1.867188 -10.28125 1.648438 -10.363281 1.484375 -10.53125 C 1.316406 -10.707031 1.234375 -10.925781 1.234375 -11.1875 C 1.234375 -11.445312 1.316406 -11.660156 1.484375 -11.828125 C 1.648438 -11.992188 1.867188 -12.078125 2.140625 -12.078125 C 2.410156 -12.078125 2.628906 -11.992188 2.796875 -11.828125 C 2.972656 -11.660156 3.0625 -11.445312 3.0625 -11.1875 C 3.0625 -10.925781 2.972656 -10.707031 2.796875 -10.53125 C 2.628906 -10.363281 2.410156 -10.28125 2.140625 -10.28125 Z M 0.421875 3.65625 C 0.148438 3.65625 -0.0859375 3.632812 -0.296875 3.59375 C -0.503906 3.5625 -0.707031 3.507812 -0.90625 3.4375 L -0.703125 2.453125 L -0.5625 2.40625 C -0.300781 2.5 -0.03125 2.546875 0.25 2.546875 C 0.65625 2.546875 0.960938 2.410156 1.171875 2.140625 C 1.390625 1.878906 1.5 1.5 1.5 1 L 1.5 -8.625 L 2.78125 -8.625 L 2.78125 0.953125 C 2.78125 1.816406 2.570312 2.484375 2.15625 2.953125 C 1.75 3.421875 1.171875 3.65625 0.421875 3.65625 Z M 0.421875 3.65625 "/></g></g></g><g fill="#000000" fill-opacity="1"><g transform="translate(270.957708, 127.021537)"><g><path d="M 8.21875 -4.015625 L 2.296875 -4.015625 C 2.328125 -2.972656 2.578125 -2.207031 3.046875 -1.71875 C 3.515625 -1.226562 4.15625 -0.984375 4.96875 -0.984375 C 5.582031 -0.984375 6.078125 -1.09375 6.453125 -1.3125 C 6.828125 -1.53125 7.117188 -1.875 7.328125 -2.34375 L 7.5 -2.34375 L 8.328125 -1.84375 C 8.078125 -1.21875 7.675781 -0.722656 7.125 -0.359375 C 6.570312 -0.00390625 5.851562 0.171875 4.96875 0.171875 C 4.132812 0.171875 3.414062 0.00390625 2.8125 -0.328125 C 2.21875 -0.660156 1.757812 -1.160156 1.4375 -1.828125 C 1.113281 -2.492188 0.953125 -3.320312 0.953125 -4.3125 C 0.953125 -5.289062 1.117188 -6.113281 1.453125 -6.78125 C 1.796875 -7.457031 2.265625 -7.957031 2.859375 -8.28125 C 3.453125 -8.613281 4.128906 -8.78125 4.890625 -8.78125 C 5.992188 -8.78125 6.851562 -8.46875 7.46875 -7.84375 C 8.09375 -7.226562 8.40625 -6.304688 8.40625 -5.078125 C 8.40625 -4.597656 8.394531 -4.273438 8.375 -4.109375 Z M 7.15625 -5.078125 C 7.132812 -5.992188 6.929688 -6.660156 6.546875 -7.078125 C 6.160156 -7.492188 5.609375 -7.703125 4.890625 -7.703125 C 4.128906 -7.703125 3.535156 -7.492188 3.109375 -7.078125 C 2.679688 -6.660156 2.421875 -5.992188 2.328125 -5.078125 Z M 7.15625 -5.078125 "/></g></g></g><g fill="#000000" fill-opacity="1"><g transform="translate(280.142965, 127.021537)"><g><path d="M 1.921875 0 L 1.921875 -7.578125 L 0.421875 -7.578125 L 0.421875 -8.625 L 1.921875 -8.625 C 1.828125 -9 1.78125 -9.359375 1.78125 -9.703125 C 1.78125 -10.253906 1.898438 -10.722656 2.140625 -11.109375 C 2.378906 -11.492188 2.707031 -11.78125 3.125 -11.96875 C 3.550781 -12.15625 4.039062 -12.25 4.59375 -12.25 C 5.445312 -12.25 6.101562 -12.0625 6.5625 -11.6875 L 6.078125 -10.796875 L 5.90625 -10.765625 C 5.570312 -11.035156 5.132812 -11.171875 4.59375 -11.171875 C 4.082031 -11.171875 3.695312 -11.039062 3.4375 -10.78125 C 3.1875 -10.519531 3.0625 -10.148438 3.0625 -9.671875 C 3.0625 -9.367188 3.109375 -9.019531 3.203125 -8.625 L 5.9375 -8.625 L 5.9375 -7.578125 L 3.203125 -7.578125 L 3.203125 0 Z M 1.921875 0 "/></g></g></g><g fill="#000000" fill-opacity="1"><g transform="translate(286.28209, 127.021537)"><g><path d="M 8.21875 -4.015625 L 2.296875 -4.015625 C 2.328125 -2.972656 2.578125 -2.207031 3.046875 -1.71875 C 3.515625 -1.226562 4.15625 -0.984375 4.96875 -0.984375 C 5.582031 -0.984375 6.078125 -1.09375 6.453125 -1.3125 C 6.828125 -1.53125 7.117188 -1.875 7.328125 -2.34375 L 7.5 -2.34375 L 8.328125 -1.84375 C 8.078125 -1.21875 7.675781 -0.722656 7.125 -0.359375 C 6.570312 -0.00390625 5.851562 0.171875 4.96875 0.171875 C 4.132812 0.171875 3.414062 0.00390625 2.8125 -0.328125 C 2.21875 -0.660156 1.757812 -1.160156 1.4375 -1.828125 C 1.113281 -2.492188 0.953125 -3.320312 0.953125 -4.3125 C 0.953125 -5.289062 1.117188 -6.113281 1.453125 -6.78125 C 1.796875 -7.457031 2.265625 -7.957031 2.859375 -8.28125 C 3.453125 -8.613281 4.128906 -8.78125 4.890625 -8.78125 C 5.992188 -8.78125 6.851562 -8.46875 7.46875 -7.84375 C 8.09375 -7.226562 8.40625 -6.304688 8.40625 -5.078125 C 8.40625 -4.597656 8.394531 -4.273438 8.375 -4.109375 Z M 7.15625 -5.078125 C 7.132812 -5.992188 6.929688 -6.660156 6.546875 -7.078125 C 6.160156 -7.492188 5.609375 -7.703125 4.890625 -7.703125 C 4.128906 -7.703125 3.535156 -7.492188 3.109375 -7.078125 C 2.679688 -6.660156 2.421875 -5.992188 2.328125 -5.078125 Z M 7.15625 -5.078125 "/></g></g></g><g fill="#000000" fill-opacity="1"><g transform="translate(295.467346, 127.021537)"><g><path d="M 1.921875 0 L 1.921875 -7.578125 L 0.421875 -7.578125 L 0.421875 -8.625 L 1.921875 -8.625 C 1.828125 -9 1.78125 -9.359375 1.78125 -9.703125 C 1.78125 -10.253906 1.898438 -10.722656 2.140625 -11.109375 C 2.378906 -11.492188 2.707031 -11.78125 3.125 -11.96875 C 3.550781 -12.15625 4.039062 -12.25 4.59375 -12.25 C 5.445312 -12.25 6.101562 -12.0625 6.5625 -11.6875 L 6.078125 -10.796875 L 5.90625 -10.765625 C 5.570312 -11.035156 5.132812 -11.171875 4.59375 -11.171875 C 4.082031 -11.171875 3.695312 -11.039062 3.4375 -10.78125 C 3.1875 -10.519531 3.0625 -10.148438 3.0625 -9.671875 C 3.0625 -9.367188 3.109375 -9.019531 3.203125 -8.625 L 5.9375 -8.625 L 5.9375 -7.578125 L 3.203125 -7.578125 L 3.203125 0 Z M 1.921875 0 "/></g></g></g><g fill="#000000" fill-opacity="1"><g transform="translate(301.606472, 127.021537)"><g><path d="M 1.921875 0 L 1.921875 -7.578125 L 0.421875 -7.578125 L 0.421875 -8.625 L 1.921875 -8.625 C 1.828125 -9 1.78125 -9.359375 1.78125 -9.703125 C 1.78125 -10.253906 1.898438 -10.722656 2.140625 -11.109375 C 2.378906 -11.492188 2.707031 -11.78125 3.125 -11.96875 C 3.550781 -12.15625 4.039062 -12.25 4.59375 -12.25 C 5.445312 -12.25 6.101562 -12.0625 6.5625 -11.6875 L 6.078125 -10.796875 L 5.90625 -10.765625 C 5.570312 -11.035156 5.132812 -11.171875 4.59375 -11.171875 C 4.082031 -11.171875 3.695312 -11.039062 3.4375 -10.78125 C 3.1875 -10.519531 3.0625 -10.148438 3.0625 -9.671875 C 3.0625 -9.367188 3.109375 -9.019531 3.203125 -8.625 L 5.9375 -8.625 L 5.9375 -7.578125 L 3.203125 -7.578125 L 3.203125 0 Z M 1.921875 0 "/></g></g></g><g fill="#000000" fill-opacity="1"><g transform="translate(307.745597, 127.021537)"><g><path d="M 1.5 0 L 1.5 -8.625 L 2.71875 -8.625 L 2.71875 -7.265625 L 2.875 -7.234375 C 3.28125 -8.210938 4.035156 -8.703125 5.140625 -8.703125 C 5.734375 -8.703125 6.175781 -8.59375 6.46875 -8.375 L 6.140625 -7.296875 L 5.984375 -7.265625 C 5.660156 -7.429688 5.304688 -7.515625 4.921875 -7.515625 C 4.234375 -7.515625 3.703125 -7.253906 3.328125 -6.734375 C 2.960938 -6.222656 2.78125 -5.390625 2.78125 -4.234375 L 2.78125 0 Z M 1.5 0 "/></g></g></g><g fill="#000000" fill-opacity="1"><g transform="translate(314.400222, 127.021537)"><g><path d="M 8.21875 -4.015625 L 2.296875 -4.015625 C 2.328125 -2.972656 2.578125 -2.207031 3.046875 -1.71875 C 3.515625 -1.226562 4.15625 -0.984375 4.96875 -0.984375 C 5.582031 -0.984375 6.078125 -1.09375 6.453125 -1.3125 C 6.828125 -1.53125 7.117188 -1.875 7.328125 -2.34375 L 7.5 -2.34375 L 8.328125 -1.84375 C 8.078125 -1.21875 7.675781 -0.722656 7.125 -0.359375 C 6.570312 -0.00390625 5.851562 0.171875 4.96875 0.171875 C 4.132812 0.171875 3.414062 0.00390625 2.8125 -0.328125 C 2.21875 -0.660156 1.757812 -1.160156 1.4375 -1.828125 C 1.113281 -2.492188 0.953125 -3.320312 0.953125 -4.3125 C 0.953125 -5.289062 1.117188 -6.113281 1.453125 -6.78125 C 1.796875 -7.457031 2.265625 -7.957031 2.859375 -8.28125 C 3.453125 -8.613281 4.128906 -8.78125 4.890625 -8.78125 C 5.992188 -8.78125 6.851562 -8.46875 7.46875 -7.84375 C 8.09375 -7.226562 8.40625 -6.304688 8.40625 -5.078125 C 8.40625 -4.597656 8.394531 -4.273438 8.375 -4.109375 Z M 7.15625 -5.078125 C 7.132812 -5.992188 6.929688 -6.660156 6.546875 -7.078125 C 6.160156 -7.492188 5.609375 -7.703125 4.890625 -7.703125 C 4.128906 -7.703125 3.535156 -7.492188 3.109375 -7.078125 C 2.679688 -6.660156 2.421875 -5.992188 2.328125 -5.078125 Z M 7.15625 -5.078125 "/></g></g></g><g fill="#000000" fill-opacity="1"><g transform="translate(323.585478, 127.021537)"><g><path d="M 2.140625 -10.28125 C 1.867188 -10.28125 1.648438 -10.363281 1.484375 -10.53125 C 1.316406 -10.707031 1.234375 -10.925781 1.234375 -11.1875 C 1.234375 -11.445312 1.316406 -11.660156 1.484375 -11.828125 C 1.648438 -11.992188 1.867188 -12.078125 2.140625 -12.078125 C 2.410156 -12.078125 2.628906 -11.992188 2.796875 -11.828125 C 2.972656 -11.660156 3.0625 -11.445312 3.0625 -11.1875 C 3.0625 -10.925781 2.972656 -10.707031 2.796875 -10.53125 C 2.628906 -10.363281 2.410156 -10.28125 2.140625 -10.28125 Z M 0.421875 3.65625 C 0.148438 3.65625 -0.0859375 3.632812 -0.296875 3.59375 C -0.503906 3.5625 -0.707031 3.507812 -0.90625 3.4375 L -0.703125 2.453125 L -0.5625 2.40625 C -0.300781 2.5 -0.03125 2.546875 0.25 2.546875 C 0.65625 2.546875 0.960938 2.410156 1.171875 2.140625 C 1.390625 1.878906 1.5 1.5 1.5 1 L 1.5 -8.625 L 2.78125 -8.625 L 2.78125 0.953125 C 2.78125 1.816406 2.570312 2.484375 2.15625 2.953125 C 1.75 3.421875 1.171875 3.65625 0.421875 3.65625 Z M 0.421875 3.65625 "/></g></g></g></svg>